<svg xmlns="http://www.w3.org/2000/svg" viewBox="0 0 640 400" fill="none" role="img">
  <defs>
    <linearGradient id="bg" x1="0" y1="0" x2="640" y2="400"><stop stop-color="#070a13"/><stop offset="1" stop-color="#121a2e"/></linearGradient>
    <linearGradient id="accent" x1="0" y1="0" x2="1" y2="1"><stop stop-color="#00e5ff"/><stop offset="1" stop-color="#7c4dff"/></linearGradient>
    <filter id="glow"><feGaussianBlur stdDeviation="3" result="b"/><feMerge><feMergeNode in="b"/><feMergeNode in="SourceGraphic"/></feMerge></filter>
  </defs>
  <rect width="640" height="400" fill="url(#bg)" rx="14"/>
  
  <rect x="100" y="80" width="440" height="240" rx="12" fill="#102030" stroke="url(#accent)" stroke-width="2"/>
  <path d="M130 120 L510 120" stroke="#2a3548"/>
  <text x="150" y="110" fill="#00e5ff" font-size="13" font-weight="600">Deliverable checklist</text>
  <rect x="130" y="140" width="24" height="24" rx="4" fill="none" stroke="#00e5ff"/>
  <rect x="170" y="150" width="280" height="8" rx="3" fill="#2a3548"/><rect x="130" y="180" width="24" height="24" rx="4" fill="none" stroke="#00e5ff"/>
  <rect x="170" y="190" width="280" height="8" rx="3" fill="#2a3548"/><rect x="130" y="220" width="24" height="24" rx="4" fill="none" stroke="#00e5ff"/>
  <rect x="170" y="230" width="280" height="8" rx="3" fill="#2a3548"/><rect x="130" y="260" width="24" height="24" rx="4" fill="none" stroke="#00e5ff"/>
  <rect x="170" y="270" width="280" height="8" rx="3" fill="#2a3548"/>
  <text x="320" y="345" text-anchor="middle" fill="#8899aa" font-size="11">PDF · APA · deadline on syllabus</text>

  <text x="320" y="32" text-anchor="middle" fill="#ffffff" font-family="Segoe UI,Arial,sans-serif" font-size="17" font-weight="700">Assignment</text>
  <text x="320" y="382" text-anchor="middle" fill="#8899aa" font-size="11">Graded assignment</text>
</svg>
