<svg xmlns="http://www.w3.org/2000/svg" viewBox="0 0 640 400" fill="none" role="img">
  <defs>
    <linearGradient id="bg" x1="0" y1="0" x2="640" y2="400"><stop stop-color="#070a13"/><stop offset="1" stop-color="#121a2e"/></linearGradient>
    <linearGradient id="accent" x1="0" y1="0" x2="1" y2="1"><stop stop-color="#00e5ff"/><stop offset="1" stop-color="#7c4dff"/></linearGradient>
    <filter id="glow"><feGaussianBlur stdDeviation="3" result="b"/><feMerge><feMergeNode in="b"/><feMergeNode in="SourceGraphic"/></feMerge></filter>
  </defs>
  <rect width="640" height="400" fill="url(#bg)" rx="14"/>
  
  <rect x="40" y="60" width="260" height="280" rx="12" fill="#1a2438" stroke="#8899aa" stroke-width="1.5"/>
  <text x="170" y="95" text-anchor="middle" fill="#8899aa" font-size="13" font-weight="600">Consultant Report</text>
  <rect x="70" y="115" width="200" height="12" rx="4" fill="#2a3548"/>
  <rect x="70" y="138" width="160" height="12" rx="4" fill="#2a3548"/>
  <rect x="70" y="161" width="180" height="12" rx="4" fill="#2a3548"/>
  <path d="M170 200 L170 280" stroke="#ff5a5f" stroke-width="2" stroke-dasharray="6 5"/>
  <text x="170" y="310" text-anchor="middle" fill="#ff5a5f" font-size="12">Archive drawer</text>
  <rect x="340" y="60" width="260" height="280" rx="12" fill="#102030" stroke="#00e5ff" stroke-width="2"/>
  <text x="470" y="95" text-anchor="middle" fill="#00e5ff" font-size="13" font-weight="600">Embedded Capability</text>
  <circle cx="400" cy="160" r="28" fill="#00e5ff" fill-opacity="0.15" stroke="#00e5ff"/>
  <text x="400" y="165" text-anchor="middle" fill="#00e5ff" font-size="11">Scan</text>
  <circle cx="470" cy="200" r="28" fill="#7c4dff" fill-opacity="0.15" stroke="#7c4dff"/>
  <text x="470" y="205" text-anchor="middle" fill="#7c4dff" font-size="11">Probe</text>
  <circle cx="540" cy="160" r="28" fill="#00e5ff" fill-opacity="0.15" stroke="#00e5ff"/>
  <text x="540" y="165" text-anchor="middle" fill="#00e5ff" font-size="11">Gate</text>
  <path d="M400 188 L470 172 L540 188" stroke="url(#accent)" stroke-width="2" fill="none"/>
  <text x="470" y="280" text-anchor="middle" fill="#ffffff" font-size="13">+33% profit · +200% market</text>
  <text x="470" y="300" text-anchor="middle" fill="#8899aa" font-size="11">Vigilant quadrant</text>

  <text x="320" y="32" text-anchor="middle" fill="#ffffff" font-family="Segoe UI,Arial,sans-serif" font-size="17" font-weight="700">Why Foresight Fails</text>
  <text x="320" y="382" text-anchor="middle" fill="#8899aa" font-size="11">Rohrbeck 2010 · M1</text>
</svg>
