<svg xmlns="http://www.w3.org/2000/svg" viewBox="0 0 640 400" fill="none" role="img">
  <defs>
    <linearGradient id="bg" x1="0" y1="0" x2="640" y2="400"><stop stop-color="#070a13"/><stop offset="1" stop-color="#121a2e"/></linearGradient>
    <linearGradient id="accent" x1="0" y1="0" x2="1" y2="1"><stop stop-color="#00e5ff"/><stop offset="1" stop-color="#7c4dff"/></linearGradient>
    <filter id="glow"><feGaussianBlur stdDeviation="3" result="b"/><feMerge><feMergeNode in="b"/><feMergeNode in="SourceGraphic"/></feMerge></filter>
  </defs>
  <rect width="640" height="400" fill="url(#bg)" rx="14"/>
  
  <rect x="55" y="70" width="68" height="220" rx="8" fill="#1a2438" stroke="#00e5ff" stroke-width="1.5"/>
  <text x="89" y="98" text-anchor="middle" fill="#00e5ff" font-size="12" font-weight="700">M1</text>
  <rect x="65" y="115" width="48" height="6" rx="2" fill="#2a3548"/>
  <rect x="65" y="130" width="40" height="6" rx="2" fill="#2a3548"/>
  <rect x="65" y="145" width="44" height="6" rx="2" fill="#2a3548"/><rect x="137" y="70" width="68" height="220" rx="8" fill="#1a2438" stroke="#7c4dff" stroke-width="1.5"/>
  <text x="171" y="98" text-anchor="middle" fill="#7c4dff" font-size="12" font-weight="700">M2</text>
  <rect x="147" y="115" width="48" height="6" rx="2" fill="#2a3548"/>
  <rect x="147" y="130" width="40" height="6" rx="2" fill="#2a3548"/>
  <rect x="147" y="145" width="44" height="6" rx="2" fill="#2a3548"/><rect x="219" y="70" width="68" height="220" rx="8" fill="#1a2438" stroke="#00e5ff" stroke-width="1.5"/>
  <text x="253" y="98" text-anchor="middle" fill="#00e5ff" font-size="12" font-weight="700">M3</text>
  <rect x="229" y="115" width="48" height="6" rx="2" fill="#2a3548"/>
  <rect x="229" y="130" width="40" height="6" rx="2" fill="#2a3548"/>
  <rect x="229" y="145" width="44" height="6" rx="2" fill="#2a3548"/><rect x="301" y="70" width="68" height="220" rx="8" fill="#1a2438" stroke="#7c4dff" stroke-width="1.5"/>
  <text x="335" y="98" text-anchor="middle" fill="#7c4dff" font-size="12" font-weight="700">M4</text>
  <rect x="311" y="115" width="48" height="6" rx="2" fill="#2a3548"/>
  <rect x="311" y="130" width="40" height="6" rx="2" fill="#2a3548"/>
  <rect x="311" y="145" width="44" height="6" rx="2" fill="#2a3548"/><rect x="383" y="70" width="68" height="220" rx="8" fill="#1a2438" stroke="#00e5ff" stroke-width="1.5"/>
  <text x="417" y="98" text-anchor="middle" fill="#00e5ff" font-size="12" font-weight="700">M5</text>
  <rect x="393" y="115" width="48" height="6" rx="2" fill="#2a3548"/>
  <rect x="393" y="130" width="40" height="6" rx="2" fill="#2a3548"/>
  <rect x="393" y="145" width="44" height="6" rx="2" fill="#2a3548"/><rect x="465" y="70" width="68" height="220" rx="8" fill="#1a2438" stroke="#7c4dff" stroke-width="1.5"/>
  <text x="499" y="98" text-anchor="middle" fill="#7c4dff" font-size="12" font-weight="700">M6</text>
  <rect x="475" y="115" width="48" height="6" rx="2" fill="#2a3548"/>
  <rect x="475" y="130" width="40" height="6" rx="2" fill="#2a3548"/>
  <rect x="475" y="145" width="44" height="6" rx="2" fill="#2a3548"/><rect x="547" y="70" width="68" height="220" rx="8" fill="#1a2438" stroke="#00e5ff" stroke-width="1.5"/>
  <text x="581" y="98" text-anchor="middle" fill="#00e5ff" font-size="12" font-weight="700">M7</text>
  <rect x="557" y="115" width="48" height="6" rx="2" fill="#2a3548"/>
  <rect x="557" y="130" width="40" height="6" rx="2" fill="#2a3548"/>
  <rect x="557" y="145" width="44" height="6" rx="2" fill="#2a3548"/>
  <text x="320" y="330" text-anchor="middle" fill="#ffffff" font-size="12">3 ECTS · 42h · Rohrbeck (2010) corpus</text>
  <text x="320" y="352" text-anchor="middle" fill="#8899aa" font-size="11">Midterm M4 · Gate memo M5 · Final M7</text>

  <text x="320" y="32" text-anchor="middle" fill="#ffffff" font-family="Segoe UI,Arial,sans-serif" font-size="17" font-weight="700">14 Weeks · 7 Modules</text>
  <text x="320" y="382" text-anchor="middle" fill="#8899aa" font-size="11">FS-501 syllabus map</text>
</svg>
