<svg xmlns="http://www.w3.org/2000/svg" viewBox="0 0 640 400" fill="none" role="img">
  <defs>
    <linearGradient id="bg" x1="0" y1="0" x2="640" y2="400"><stop stop-color="#070a13"/><stop offset="1" stop-color="#121a2e"/></linearGradient>
    <linearGradient id="accent" x1="0" y1="0" x2="1" y2="1"><stop stop-color="#00e5ff"/><stop offset="1" stop-color="#7c4dff"/></linearGradient>
    <filter id="glow"><feGaussianBlur stdDeviation="3" result="b"/><feMerge><feMergeNode in="b"/><feMergeNode in="SourceGraphic"/></feMerge></filter>
  </defs>
  <rect width="640" height="400" fill="url(#bg)" rx="14"/>
  
  <rect x="80" y="75" width="480" height="58" rx="8" fill="#1a2438" stroke="#00e5ff" stroke-width="1.5"/>
  <circle cx="115" cy="104" r="18" fill="#102030" stroke="#00e5ff"/>
  <text x="115" y="109" text-anchor="middle" fill="#00e5ff" font-size="12">1</text>
  <rect x="150" y="93" width="200" height="10" rx="3" fill="#2a3548"/>
  <rect x="150" y="111" width="140" height="8" rx="3" fill="#2a3548"/><rect x="80" y="145" width="480" height="58" rx="8" fill="#1a2438" stroke="#7c4dff" stroke-width="1.5"/>
  <circle cx="115" cy="174" r="18" fill="#102030" stroke="#00e5ff"/>
  <text x="115" y="179" text-anchor="middle" fill="#00e5ff" font-size="12">2</text>
  <rect x="150" y="163" width="200" height="10" rx="3" fill="#2a3548"/>
  <rect x="150" y="181" width="140" height="8" rx="3" fill="#2a3548"/><rect x="80" y="215" width="480" height="58" rx="8" fill="#1a2438" stroke="#00e5ff" stroke-width="1.5"/>
  <circle cx="115" cy="244" r="18" fill="#102030" stroke="#00e5ff"/>
  <text x="115" y="249" text-anchor="middle" fill="#00e5ff" font-size="12">3</text>
  <rect x="150" y="233" width="200" height="10" rx="3" fill="#2a3548"/>
  <rect x="150" y="251" width="140" height="8" rx="3" fill="#2a3548"/><rect x="80" y="285" width="480" height="58" rx="8" fill="#1a2438" stroke="#7c4dff" stroke-width="1.5"/>
  <circle cx="115" cy="314" r="18" fill="#102030" stroke="#00e5ff"/>
  <text x="115" y="319" text-anchor="middle" fill="#00e5ff" font-size="12">4</text>
  <rect x="150" y="303" width="200" height="10" rx="3" fill="#2a3548"/>
  <rect x="150" y="321" width="140" height="8" rx="3" fill="#2a3548"/>

  <text x="320" y="32" text-anchor="middle" fill="#ffffff" font-family="Segoe UI,Arial,sans-serif" font-size="17" font-weight="700">Session Plan</text>
  <text x="320" y="382" text-anchor="middle" fill="#8899aa" font-size="11">3h session blocks</text>
</svg>
