<?xml version="1.0" encoding="UTF-8"?>
<svg xmlns="http://www.w3.org/2000/svg" viewBox="0 0 960 540" fill="none" role="img">
  <defs>
    <linearGradient id="bg" x1="0" y1="0" x2="960" y2="540">
      <stop stop-color="#070a13"/><stop offset="1" stop-color="#0f1729"/>
    </linearGradient>
    <linearGradient id="accent" x1="0" y1="0" x2="1" y2="1">
      <stop stop-color="#00e5ff"/><stop offset="1" stop-color="#7c4dff"/>
    </linearGradient>
    <marker id="arrow" viewBox="0 0 10 10" refX="8" refY="5" markerWidth="7" markerHeight="7" orient="auto-start-reverse">
      <path d="M0 0 L10 5 L0 10 z" fill="#8b9bb0"/>
    </marker>
  </defs>
  <rect width="960" height="540" fill="url(#bg)" rx="18"/>
  <text x="480" y="52" text-anchor="middle" fill="#f3f4f6" font-family="Segoe UI,Arial,sans-serif" font-size="26" font-weight="700">Critical Uncertainty · 2×2 Matrix</text>
  
  <line x1="480" y1="110" x2="480" y2="440" stroke="#8b9bb0" stroke-width="2"/>
  <line x1="180" y1="270" x2="780" y2="270" stroke="#8b9bb0" stroke-width="2"/>
  <text x="480" y="95" text-anchor="middle" fill="#8b9bb0" font-size="13">Uncertainty axis A ↑</text>
  <text x="785" y="275" fill="#8b9bb0" font-size="13">Uncertainty axis B →</text>
  <rect x="300" y="130" width="170" height="130" rx="12" fill="#102030" stroke="#00e5ff" stroke-width="2"/>
  <text x="385" y="200" text-anchor="middle" fill="#00e5ff" font-size="15" font-weight="700">Scenario A</text>
  <rect x="490" y="130" width="170" height="130" rx="12" fill="#152035" stroke="#7c4dff" stroke-width="2"/>
  <text x="575" y="200" text-anchor="middle" fill="#7c4dff" font-size="15" font-weight="700">Scenario B</text>
  <rect x="300" y="280" width="170" height="130" rx="12" fill="#152035" stroke="#ffaa00" stroke-width="2"/>
  <text x="385" y="350" text-anchor="middle" fill="#ffaa00" font-size="15" font-weight="700">Scenario C</text>
  <rect x="490" y="280" width="170" height="130" rx="12" fill="#152035" stroke="#ff5a7a" stroke-width="2"/>
  <text x="575" y="350" text-anchor="middle" fill="#ff5a7a" font-size="15" font-weight="700">Scenario D</text>

  <text x="480" y="516" text-anchor="middle" fill="#8b9bb0" font-family="Segoe UI,Arial,sans-serif" font-size="14">Two axes, four logics · Module M2</text>
</svg>