<svg xmlns="http://www.w3.org/2000/svg" viewBox="160 30 880 600" fill="none">
  <defs>
    <linearGradient id="bg" x1="0" y1="0" x2="1200" y2="675" gradientUnits="userSpaceOnUse">
      <stop stop-color="#070a13"/>
      <stop offset="1" stop-color="#141028"/>
    </linearGradient>
  </defs>
  <rect width="1200" height="675" fill="url(#bg)"/>
  <polygon points="600,80 980,240 980,435 600,595 220,435 220,240" stroke="#ffaa00" stroke-width="3" fill="rgba(255,170,0,0.07)"/>
  <polygon points="600,150 860,280 860,395 600,525 340,395 340,280" stroke="#7c4dff" stroke-width="2.5" fill="rgba(124,77,255,0.09)"/>
  <polygon points="600,220 740,295 740,380 600,455 460,380 460,295" stroke="#00e5ff" stroke-width="2" fill="rgba(0,229,255,0.12)"/>
  <polygon points="600,280 660,315 660,360 600,395 540,360 540,315" stroke="#4caf50" stroke-width="2" fill="rgba(76,175,80,0.18)"/>
  <text x="600" y="62" text-anchor="middle" fill="#ffaa00" font-family="Arial,sans-serif" font-size="24" font-weight="700">Litany</text>
  <text x="995" y="340" fill="#7c4dff" font-family="Arial,sans-serif" font-size="24" font-weight="700">Systemic</text>
  <text x="600" y="640" text-anchor="middle" fill="#00e5ff" font-family="Arial,sans-serif" font-size="24" font-weight="700">Worldview / Myth</text>
  <text x="600" y="668" text-anchor="middle" fill="#8899aa" font-family="Arial,sans-serif" font-size="18">CLA before Policy</text>
</svg>
