<svg xmlns="http://www.w3.org/2000/svg" viewBox="180 40 840 580" fill="none">
  <defs>
    <linearGradient id="bg" x1="0" y1="0" x2="1200" y2="675" gradientUnits="userSpaceOnUse">
      <stop stop-color="#070a13"/>
      <stop offset="0.55" stop-color="#0d1830"/>
      <stop offset="1" stop-color="#120a24"/>
    </linearGradient>
    <linearGradient id="glow" x1="600" y1="120" x2="600" y2="560" gradientUnits="userSpaceOnUse">
      <stop stop-color="#00e5ff" stop-opacity="0.35"/>
      <stop offset="1" stop-color="#7c4dff" stop-opacity="0"/>
    </linearGradient>
    <filter id="blur" x="-20%" y="-20%" width="140%" height="140%">
      <feGaussianBlur stdDeviation="18"/>
    </filter>
  </defs>
  <rect width="1200" height="675" fill="url(#bg)"/>
  <ellipse cx="600" cy="340" rx="320" ry="220" fill="url(#glow)" filter="url(#blur)"/>
  <circle cx="600" cy="340" r="250" stroke="#00e5ff" stroke-opacity="0.18" stroke-width="2"/>
  <circle cx="600" cy="340" r="190" stroke="#7c4dff" stroke-opacity="0.28" stroke-width="2"/>
  <circle cx="600" cy="340" r="120" stroke="#00e5ff" stroke-opacity="0.45" stroke-width="2"/>
  <circle cx="600" cy="340" r="56" fill="#00e5ff" fill-opacity="0.12" stroke="#00e5ff" stroke-width="2"/>
  <path d="M600 90 L600 590 M350 340 L850 340" stroke="#00e5ff" stroke-opacity="0.12" stroke-width="1.5"/>
  <circle cx="600" cy="118" r="14" fill="#00e5ff"/>
  <circle cx="820" cy="250" r="14" fill="#7c4dff"/>
  <circle cx="760" cy="470" r="14" fill="#ffaa00"/>
  <circle cx="440" cy="470" r="14" fill="#4caf50"/>
  <circle cx="380" cy="250" r="14" fill="#e040fb"/>
  <text x="600" y="108" text-anchor="middle" fill="#00e5ff" font-family="Arial,sans-serif" font-size="22" font-weight="700">Perceiving</text>
  <text x="845" y="245" fill="#7c4dff" font-family="Arial,sans-serif" font-size="22" font-weight="700">Prospecting</text>
  <text x="785" y="505" fill="#ffaa00" font-family="Arial,sans-serif" font-size="22" font-weight="700">Probing</text>
  <text x="600" y="620" text-anchor="middle" fill="#c8d4e8" font-family="Arial,sans-serif" font-size="28" font-weight="700">Future FITness</text>
  <text x="600" y="652" text-anchor="middle" fill="#8899aa" font-family="Arial,sans-serif" font-size="18">Corporate Foresight Maturity</text>
</svg>
