<svg xmlns="http://www.w3.org/2000/svg" viewBox="80 140 1040 420" fill="none">
  <defs>
    <linearGradient id="bg" x1="0" y1="0" x2="1200" y2="675" gradientUnits="userSpaceOnUse">
      <stop stop-color="#070a13"/>
      <stop offset="1" stop-color="#10182a"/>
    </linearGradient>
  </defs>
  <rect width="1200" height="675" fill="url(#bg)"/>
  <path d="M120 520 C260 420 380 560 520 470 S820 360 980 430 S1120 300 1200 380" stroke="#00e5ff" stroke-opacity="0.35" stroke-width="3" fill="none"/>
  <path d="M120 470 C280 390 420 500 580 430 S860 340 1020 390 S1140 280 1200 330" stroke="#7c4dff" stroke-opacity="0.45" stroke-width="3" fill="none"/>
  <path d="M120 570 C240 500 360 590 500 530 S780 470 940 520 S1100 430 1200 480" stroke="#ffaa00" stroke-opacity="0.4" stroke-width="3" fill="none"/>
  <rect x="180" y="180" width="840" height="220" rx="18" fill="rgba(255,255,255,0.03)" stroke="rgba(124,77,255,0.35)" stroke-width="2"/>
  <text x="600" y="250" text-anchor="middle" fill="#00e5ff" font-family="Arial,sans-serif" font-size="34" font-weight="700">Type-2 Fuzzy Logic</text>
  <text x="600" y="300" text-anchor="middle" fill="#c8d4e8" font-family="Arial,sans-serif" font-size="22">Uncertainty about uncertainty</text>
  <text x="600" y="350" text-anchor="middle" fill="#8899aa" font-family="Arial,sans-serif" font-size="18">FOU footprints instead of crisp borders</text>
  <circle cx="280" cy="430" r="10" fill="#00e5ff"/>
  <circle cx="420" cy="390" r="10" fill="#7c4dff"/>
  <circle cx="600" cy="410" r="10" fill="#ffaa00"/>
  <circle cx="780" cy="380" r="10" fill="#4caf50"/>
  <circle cx="920" cy="420" r="10" fill="#e040fb"/>
</svg>
